<svg width="20" height="19" viewBox="0 0 20 19" fill="none" xmlns="http://www.w3.org/2000/svg">
<path fill-rule="evenodd" clip-rule="evenodd" d="M0 8.64138C0 4.34268 3.80557 0.85791 8.5 0.85791C13.1944 0.85791 17 4.34268 17 8.64138C17 10.3084 16.4277 11.853 15.4532 13.1195L18.7939 16.1764C19.2271 16.5728 19.2271 17.2555 18.7939 17.6519L18.2126 18.1838C17.8305 18.5335 17.2446 18.5335 16.8625 18.1838L13.3915 15.0077C12.0083 15.9005 10.321 16.4248 8.5 16.4248C3.80557 16.4248 0 12.9401 0 8.64138ZM8.49996 14.201C5.15218 14.201 2.42854 11.7069 2.42854 8.64138C2.42854 5.5758 5.15218 3.08176 8.49996 3.08176C11.8477 3.08176 14.5714 5.5758 14.5714 8.64138C14.5714 11.7069 11.8477 14.201 8.49996 14.201Z" fill="#222222"/>
</svg>
